<svg width="97" height="97" viewBox="0 0 97 97" fill="none" xmlns="http://www.w3.org/2000/svg">
<path d="M86.6503 18.5544H89.6474C90.6929 18.5544 91.5407 17.7066 91.5407 16.6611C91.5407 15.6157 90.6929 14.7678 89.6474 14.7678H82.4529C81.4074 14.7678 80.5596 15.6157 80.5596 16.6611V23.8556C80.5596 24.9011 81.4074 25.7489 82.4529 25.7489C83.4984 25.7489 84.3462 24.9011 84.3462 23.8556V21.7724C90.0908 29.4632 93.2134 38.7946 93.2134 48.5C93.2134 73.1552 73.1552 93.2134 48.5 93.2134C23.8448 93.2134 3.78658 73.1552 3.78658 48.5C3.78658 23.8448 23.8448 3.78658 48.5 3.78658C50.3234 3.78658 52.1586 3.89734 53.9549 4.11563C54.9915 4.24097 55.9368 3.50277 56.0629 2.46468C56.1892 1.42678 55.4501 0.482789 54.412 0.356696C52.4645 0.120034 50.4756 0 48.5 0C35.5452 0 23.3656 5.04486 14.2053 14.2053C5.04486 23.3656 0 35.5452 0 48.5C0 61.4548 5.04486 73.6344 14.2053 82.7947C23.3656 91.9551 35.5452 97 48.5 97C61.4548 97 73.6344 91.9551 82.7947 82.7947C91.9551 73.6344 97 61.4548 97 48.5C97 37.568 93.3478 27.0731 86.6503 18.5544Z" fill="#BFBFBF"/>
<path d="M20.5369 28.5911C19.6533 28.0319 18.4838 28.295 17.9243 29.1781C13.6021 36.0045 11.6888 44.2142 12.5368 52.2949C13.3973 60.4955 17.0883 68.2288 22.9298 74.0706C29.9795 81.1202 39.2397 84.6452 48.5002 84.6452C57.7606 84.6452 67.0207 81.1204 74.0706 74.0706C88.1701 59.9711 88.1701 37.0293 74.0706 22.93C68.2379 17.0975 60.5173 13.4079 52.3303 12.5408C44.2645 11.686 36.0637 13.5844 29.2401 17.8853C28.3554 18.4429 28.0905 19.612 28.6479 20.4966C29.2055 21.3813 30.3746 21.6462 31.2591 21.0888C44.1218 12.9817 60.625 14.8396 71.3929 25.6075C84.016 38.2306 84.016 58.7698 71.3929 71.3929C58.77 84.0162 38.2304 84.0162 25.6075 71.3929C14.9884 60.7738 13.1027 43.8719 21.1238 31.2039C21.6829 30.3203 21.4203 29.1506 20.5369 28.5911Z" fill="#BFBFBF"/>
<path d="M73.1129 50.424H75.4478C76.4932 50.424 77.341 49.5761 77.341 48.5307C77.341 47.4852 76.4932 46.6374 75.4478 46.6374H73.1129C72.0675 46.6374 71.2197 47.4852 71.2197 48.5307C71.2197 49.5761 72.0673 50.424 73.1129 50.424Z" fill="#BFBFBF"/>
<path d="M19.659 48.4693C19.659 49.5148 20.5068 50.3626 21.5523 50.3626H23.8871C24.9325 50.3626 25.7803 49.5148 25.7803 48.4693C25.7803 47.4239 24.9325 46.576 23.8871 46.576H21.5523C20.5068 46.576 19.659 47.4237 19.659 48.4693Z" fill="#BFBFBF"/>
<path d="M50.424 23.8871V21.5523C50.424 20.5068 49.5761 19.659 48.5307 19.659C47.4852 19.659 46.6374 20.5068 46.6374 21.5523V23.8871C46.6374 24.9326 47.4852 25.7804 48.5307 25.7804C49.5761 25.7804 50.424 24.9326 50.424 23.8871Z" fill="#BFBFBF"/>
<path d="M46.576 73.1129V75.4477C46.576 76.4932 47.4239 77.341 48.4693 77.341C49.5148 77.341 50.3626 76.4932 50.3626 75.4477V73.1129C50.3626 72.0674 49.5148 71.2196 48.4693 71.2196C47.4239 71.2196 46.576 72.0672 46.576 73.1129Z" fill="#BFBFBF"/>
<path d="M39.0101 36.3324C38.2706 35.5933 37.0721 35.5933 36.3324 36.3324C35.5931 37.0718 35.5931 38.2706 36.3324 39.0101L42.749 45.4267C42.2573 46.343 41.9776 47.3894 41.9776 48.5C41.9776 52.0965 44.9035 55.0224 48.5 55.0224C52.0965 55.0224 55.0224 52.0965 55.0224 48.5C55.0224 47.3894 54.7426 46.343 54.2511 45.4267L67.198 32.4798C67.9373 31.7404 67.9373 30.5416 67.198 29.8021C66.4584 29.063 65.26 29.063 64.5203 29.8021L51.5734 42.749C50.657 42.2573 49.6106 41.9777 48.5 41.9777C47.3894 41.9777 46.343 42.2575 45.4266 42.749L39.0101 36.3324ZM51.2358 48.5C51.2358 50.0086 50.0086 51.2358 48.5 51.2358C46.9914 51.2358 45.7642 50.0086 45.7642 48.5C45.7642 46.9915 46.9914 45.7642 48.5 45.7642C50.0086 45.7642 51.2358 46.9915 51.2358 48.5Z" fill="#BFBFBF"/>
<path d="M25.6064 25.6064C25.9604 25.2542 26.1628 24.7657 26.1628 24.2678C26.1628 23.7699 25.9604 23.2833 25.6064 22.9292C25.2542 22.5773 24.7674 22.3745 24.2678 22.3745C23.7699 22.3745 23.2814 22.5771 22.9293 22.9292C22.5773 23.2814 22.3745 23.7699 22.3745 24.2678C22.3745 24.7676 22.5771 25.2542 22.9293 25.6064C23.2814 25.9583 23.7699 26.1611 24.2678 26.1611C24.7674 26.1611 25.2542 25.9583 25.6064 25.6064Z" fill="#BFBFBF"/>
<path d="M61.6148 5.65676C62.1148 5.65676 62.6033 5.45588 62.9553 5.10202C63.3074 4.74987 63.5102 4.26311 63.5102 3.76347C63.5102 3.26553 63.3076 2.77706 62.9553 2.42491C62.6033 2.07295 62.1148 1.87018 61.6148 1.87018C61.1169 1.87018 60.6284 2.07276 60.2764 2.42491C59.9243 2.77706 59.7215 3.26553 59.7215 3.76347C59.7215 4.2633 59.9241 4.74987 60.2764 5.10202C60.6284 5.45588 61.1169 5.65676 61.6148 5.65676Z" fill="#BFBFBF"/>
</svg>
