<?xml version="1.0" encoding="iso-8859-1"?>
<!-- Generator: Adobe Illustrator 19.0.0, SVG Export Plug-In . SVG Version: 6.00 Build 0)  -->
<svg version="1.1" id="Capa_1" xmlns="http://www.w3.org/2000/svg" xmlns:xlink="http://www.w3.org/1999/xlink" x="0px" y="0px"
	 viewBox="0 0 511.999 511.999" style="enable-background:new 0 0 511.999 511.999;" xml:space="preserve">
<g>
	<g>
		<path d="M509.814,261.499c-2.576-4.056-6.984-6.478-11.789-6.478h-63.4c-11.302,0-20.498,9.195-20.498,20.497
			c0,0.224-0.018,0.444-0.044,0.661v-48.335c0-6.945-5.651-12.596-12.595-12.596h-54.892v-56.151c0-5.349-4.352-9.701-9.701-9.701
			H206.298c-5.349,0-9.702,4.352-9.702,9.701V280.99h-23.231v-44.341c5.45-0.013,9.88-4.449,9.88-9.902v-18.353
			c0-5.461-4.443-9.904-9.904-9.904h-22.338v-55.219c0-6.184-5.031-11.215-11.216-11.215h-32.232V95.16
			c0-4.193-3.399-7.592-7.592-7.592s-7.592,3.399-7.592,7.592v36.897H60.139c-6.184,0-11.215,5.031-11.215,11.215v55.219h-22.34
			c-5.461,0-9.904,4.443-9.904,9.904v18.353c0,5.453,4.43,9.89,9.88,9.902v44.341H13.005c-3.94,0-7.623,1.755-10.103,4.815
			c-2.477,3.054-3.431,7.011-2.618,10.856c5.457,25.827,18.672,51.016,38.217,72.843c1.04,1.162,1.69,2.561,1.965,4.029
			c0.075,0.4,0.118,0.801,0.135,1.2c0.002,0.044,0.008,0.089,0.009,0.133c0.011,0.378-0.013,0.753-0.052,1.126
			c-0.008,0.071-0.007,0.143-0.017,0.214c-0.046,0.346-0.125,0.685-0.214,1.023c-0.024,0.09-0.035,0.181-0.062,0.27
			c-0.125,0.418-0.28,0.828-0.471,1.227l-12.26,25.667c-2.084,4.364-1.789,9.413,0.791,13.504s7.007,6.533,11.844,6.533h391.392
			c5.388,0,10.35-3.151,12.64-8.028l66.464-141.48C512.709,270.575,512.39,265.555,509.814,261.499z M346.595,230.273h52.464v50.718
			h-52.464V230.273z M279.107,164.42h52.464v50.828h-52.464V164.42z M279.107,230.273h52.464v50.718h-52.464V230.273z
			 M211.62,164.42h52.464v50.828H211.62V164.42z M211.62,230.273h52.464v50.718H211.62V230.273z M63.948,147.081h72.031v51.41
			H63.948V147.081z M31.705,213.515H168.22v8.112H83.259c-4.149,0-7.512,3.363-7.512,7.512s3.363,7.512,7.512,7.512h75.082v44.34
			H41.585v-44.34h6.349c4.149,0,7.512-3.363,7.512-7.512s-3.363-7.512-7.512-7.512H31.705V213.515z M451.965,364.547h-74.468
			c-4.149,0-7.512,3.363-7.512,7.512s3.363,7.512,7.512,7.512h67.41l-14.017,29.837H41.79l11.561-24.205
			c0.239-0.5,0.455-1.006,0.656-1.517c0.063-0.16,0.117-0.322,0.177-0.482c0.13-0.352,0.256-0.704,0.368-1.06
			c0.063-0.198,0.119-0.397,0.177-0.596c0.091-0.315,0.176-0.631,0.253-0.948c0.056-0.232,0.109-0.463,0.158-0.695
			c0.023-0.111,0.054-0.222,0.076-0.333h286.955c4.149,0,7.512-3.363,7.512-7.512s-3.363-7.512-7.512-7.512H53.137
			c-0.911-1.801-2.051-3.51-3.443-5.064c-17.421-19.455-28.906-40.795-34.167-63.469l391.043,0.111c0.423,0,1.68-0.043,2.083-0.111
			c11.302,0,20.497-9.195,20.497-20.497c0-3.018,2.455-5.473,5.474-5.473h61.735L451.965,364.547z"/>
	</g>
</g>
<g>
</g>
<g>
</g>
<g>
</g>
<g>
</g>
<g>
</g>
<g>
</g>
<g>
</g>
<g>
</g>
<g>
</g>
<g>
</g>
<g>
</g>
<g>
</g>
<g>
</g>
<g>
</g>
<g>
</g>
</svg>
