<svg width="499" height="248" viewBox="0 0 499 248" fill="none" xmlns="http://www.w3.org/2000/svg">
<path d="M250.925 131.756H187.197V132.942C187.197 135.378 188.166 137.715 189.889 139.437C191.613 141.16 193.951 142.127 196.389 142.127H258.944V139.768C258.945 138.715 258.738 137.673 258.335 136.701C257.932 135.728 257.342 134.845 256.597 134.101C255.852 133.357 254.968 132.766 253.995 132.364C253.021 131.962 251.978 131.755 250.925 131.756Z" fill="black"/>
<path d="M49.7585 237.888C35.8596 237.888 24.5924 226.629 24.5924 212.74C24.5924 198.851 35.8596 187.592 49.7585 187.592C63.6573 187.592 74.9245 198.851 74.9245 212.74C74.9245 226.629 63.6573 237.888 49.7585 237.888Z" fill="black"/>
<path d="M70.0843 227.572C73.7515 222.547 75.4251 216.341 74.7816 210.155C74.1381 203.968 71.2233 198.239 66.6001 194.075C61.9769 189.91 55.9734 187.605 49.749 187.605C43.5247 187.605 37.5211 189.91 32.8979 194.074L70.0843 227.572Z" fill="#04009A"/>
<path d="M49.7585 219.951C45.7776 219.951 42.5504 216.726 42.5504 212.748C42.5504 208.77 45.7776 205.545 49.7585 205.545C53.7394 205.545 56.9666 208.77 56.9666 212.748C56.9666 216.726 53.7394 219.951 49.7585 219.951Z" stroke="white" stroke-miterlimit="10"/>
<path d="M279.53 237.888C265.631 237.888 254.364 226.629 254.364 212.74C254.364 198.851 265.631 187.592 279.53 187.592C293.429 187.592 304.696 198.851 304.696 212.74C304.696 226.629 293.429 237.888 279.53 237.888Z" fill="black"/>
<path d="M303.391 204.725C301.487 199.072 297.635 194.278 292.521 191.201C287.408 188.123 281.366 186.962 275.475 187.924C269.584 188.886 264.227 191.909 260.36 196.453C256.493 200.997 254.368 206.767 254.364 212.732L303.391 204.725Z" fill="#04009A"/>
<path d="M279.519 219.951C275.538 219.951 272.311 216.726 272.311 212.748C272.311 208.77 275.538 205.545 279.519 205.545C283.5 205.545 286.727 208.77 286.727 212.748C286.727 216.726 283.5 219.951 279.519 219.951Z" stroke="white" stroke-miterlimit="10"/>
<path d="M85.642 92.2756C85.6417 95.1244 86.656 97.8803 88.5033 100.05C90.3507 102.22 92.9105 103.662 95.7245 104.118C98.5385 104.574 101.423 104.014 103.862 102.539C106.301 101.064 108.135 98.7695 109.035 96.0666L88.7767 84.192C86.7562 86.3995 85.6376 89.284 85.642 92.2756Z" fill="#77ACF1"/>
<path d="M88.7765 84.1919L109.035 96.0667C109.905 93.4581 109.852 90.6301 108.884 88.0561C107.917 85.4822 106.094 83.3185 103.72 81.9273C101.347 80.5362 98.5674 80.002 95.8469 80.4142C93.1265 80.8265 90.6304 82.1601 88.7765 84.1919Z" fill="white" stroke="#04009A" stroke-miterlimit="10" stroke-linecap="round"/>
<path d="M207.404 210.269V142.129H254.529C288.713 142.129 317.158 168.39 319.848 202.444H260.98C257.02 202.444 253.104 203.277 249.487 204.889C245.871 206.501 242.634 208.855 239.987 211.799L231.423 221.324C229.725 223.214 227.647 224.726 225.325 225.761C223.003 226.796 220.489 227.331 217.946 227.33H100.195C95.5273 227.33 90.9438 226.086 86.9173 223.726L23.2729 186.412C23.2729 186.412 30.1801 164.164 58.8815 170.124L108.072 89.7134C108.97 88.2468 110.229 87.0349 111.73 86.194C113.23 85.3531 114.922 84.9113 116.642 84.9109H125.783V89.3131H121.922C119.99 89.3125 118.098 89.8689 116.474 90.9154C114.85 91.962 113.562 93.4544 112.765 95.2137L82.7295 161.574C70.364 188.888 90.3513 219.845 120.351 219.845H197.826C199.084 219.845 200.33 219.597 201.493 219.116C202.655 218.635 203.711 217.929 204.6 217.04C205.49 216.151 206.195 215.095 206.676 213.933C207.157 212.772 207.404 211.527 207.404 210.269Z" fill="white" stroke="#04009A" stroke-miterlimit="10" stroke-linecap="round"/>
<path d="M314.007 202.284C311.298 185.616 296.821 172.882 279.371 172.882C259.991 172.882 244.28 188.582 244.28 207.949" stroke="#04009A" stroke-miterlimit="10"/>
<path d="M58.5756 169.965C65.5858 171.988 71.3614 176.56 74.6138 182.497" stroke="#04009A" stroke-miterlimit="10"/>
<path d="M125.316 90.2984C122.548 90.2984 120.304 88.0561 120.304 85.2901C120.304 82.524 122.548 80.2817 125.316 80.2817C128.084 80.2817 130.328 82.524 130.328 85.2901C130.328 88.0561 128.084 90.2984 125.316 90.2984Z" fill="#04009A"/>
<path d="M120.501 51.4183C117.081 46.8027 115.731 42.0087 117.485 40.7107C119.239 39.4126 123.434 42.102 126.854 46.7176C130.274 51.3332 131.625 56.1271 129.871 57.4252C128.116 58.7233 123.922 56.0339 120.501 51.4183Z" fill="#77ACF1"/>
<path d="M121.74 50.3637C118.21 45.6009 116.817 40.6536 118.628 39.3136C120.439 37.9736 124.768 40.7484 128.297 45.5113C131.827 50.2741 133.22 55.2214 131.409 56.5614C129.598 57.9013 125.269 55.1266 121.74 50.3637Z" stroke="#04009A" stroke-miterlimit="10" stroke-linecap="round"/>
<path d="M111.23 86.4977V67.2321C111.23 64.6067 112.204 62.0745 113.962 60.124L124.838 48.0679" stroke="#04009A" stroke-miterlimit="10" stroke-linecap="round"/>
<path d="M207.402 142.129V153.291L258.943 142.292V142.281C257.484 142.181 256.012 142.131 254.527 142.132L207.402 142.129Z" fill="#04009A"/>
<path d="M279.53 237.888H7.98944e-06" stroke="#04009A" stroke-miterlimit="10"/>
<path d="M183.977 246.732H23.2728" stroke="#04009A" stroke-miterlimit="10"/>
<path d="M322.27 212.789C323.741 206.396 327.338 200.691 332.473 196.606C337.608 192.52 343.979 190.296 350.543 190.296C356.097 190.297 361.543 188.758 366.275 185.851C371.007 182.944 374.84 178.783 377.347 173.83L385.505 157.712C389.396 150.026 395.765 143.876 403.584 140.253C411.403 136.63 420.216 135.746 428.6 137.744C436.984 139.742 444.449 144.506 449.79 151.265C455.131 158.025 458.037 166.386 458.037 174.998V181.092C453.513 181.4 449.146 182.876 445.363 185.375C441.579 187.873 438.509 191.31 436.452 195.349C438.906 192.27 442.023 189.785 445.571 188.078C449.12 186.371 453.008 185.487 456.947 185.491C457.311 185.491 457.676 185.499 458.037 185.513C464.799 185.791 471.191 188.67 475.877 193.549C480.563 198.428 483.179 204.928 483.179 211.69C483.179 218.452 480.563 224.953 475.877 229.832C471.191 234.71 464.799 237.589 458.037 237.867L283.52 237.89C307.657 237.885 318.887 227.478 322.27 212.789ZM461.396 202.196C462.06 202.196 462.71 201.999 463.262 201.63C463.814 201.261 464.245 200.737 464.499 200.124C464.753 199.51 464.82 198.835 464.69 198.184C464.561 197.533 464.241 196.935 463.771 196.466C463.301 195.997 462.703 195.677 462.051 195.547C461.4 195.418 460.725 195.484 460.111 195.738C459.497 195.992 458.972 196.423 458.603 196.975C458.234 197.526 458.037 198.175 458.037 198.839C458.037 199.729 458.391 200.583 459.021 201.212C459.651 201.842 460.505 202.196 461.396 202.196Z" fill="#04009A"/>
<path d="M492.323 237.167C489.029 237.167 486.359 234.499 486.359 231.208C486.359 227.917 489.029 225.249 492.323 225.249C495.617 225.249 498.287 227.917 498.287 231.208C498.287 234.499 495.617 237.167 492.323 237.167Z" fill="#04009A"/>
<path d="M123.219 207.436C141.395 212.537 159.848 209.171 164.706 208.114C164.69 208.076 164.674 208.037 164.656 207.998L124.361 124.988V202.857C124.359 204.454 123.967 206.025 123.219 207.436Z" fill="#04009A"/>
<path d="M115.783 218.353V219.842H157.399C163.449 219.842 167.483 213.621 165.045 208.114C160.18 209.171 141.733 212.537 123.558 207.436C122.89 208.695 121.954 209.793 120.817 210.653L118.884 212.124C117.921 212.852 117.14 213.794 116.602 214.875C116.063 215.955 115.783 217.146 115.783 218.353Z" fill="black" stroke="#04009A" stroke-miterlimit="10"/>
<path d="M126.833 131.508L162.111 204.282C162.743 205.588 162.859 207.084 162.438 208.472C162.438 208.472 185.081 217.623 206.14 214.904C206.871 213.609 207.291 212.163 207.367 210.679C207.443 209.194 207.172 207.713 206.576 206.351L177.181 138.374C176.847 137.6 176.71 136.755 176.783 135.915C176.856 135.075 177.137 134.266 177.601 133.562C178.064 132.857 178.695 132.278 179.438 131.878C180.181 131.477 181.011 131.268 181.855 131.268H224.044C227.839 131.267 231.59 130.456 235.045 128.888C238.5 127.32 241.58 125.031 244.077 122.176L187.094 96.4703H148.807C130.79 96.4687 118.979 115.3 126.833 131.508Z" fill="white" stroke="#04009A" stroke-miterlimit="10" stroke-linecap="round"/>
<path d="M172.819 106.637C154.802 106.637 142.991 125.47 150.845 141.672L186.123 214.446" stroke="#04009A" stroke-miterlimit="10" stroke-linecap="round" stroke-dasharray="20 20"/>
<path d="M155.752 219.842H197.704C199.425 219.848 201.116 219.392 202.601 218.522C204.085 217.653 205.309 216.401 206.145 214.897C185.086 217.611 162.443 208.465 162.443 208.465C162.146 209.455 161.588 210.346 160.828 211.046L158.777 212.941C157.823 213.82 157.062 214.887 156.541 216.075C156.02 217.262 155.752 218.545 155.752 219.842Z" fill="white" stroke="#04009A" stroke-miterlimit="10"/>
<path d="M177.031 21.6992L182.035 28.7926C185.1 26.6881 188.732 25.5643 192.451 25.5702H200.186C200.602 25.5702 201.018 25.5768 201.434 25.5899L190.518 15.6613L177.031 21.6992Z" fill="white" stroke="#04009A" stroke-miterlimit="10" stroke-linecap="round"/>
<path d="M173.146 8.93717L171.927 16.4195C171.879 16.83 171.982 17.244 172.217 17.5841C172.452 17.9242 172.803 18.1672 173.205 18.2676L173.308 18.2922C173.707 18.3897 174.069 18.6057 174.343 18.9119C174.618 19.2181 174.794 19.6001 174.848 20.0079L175.175 22.4949C175.243 23.0085 175.513 23.4741 175.923 23.7901C176.334 24.1061 176.854 24.2467 177.368 24.1813C180.176 23.8071 185.166 22.4623 186.548 17.6255C188.502 10.7853 181.224 8.93227 181.224 8.93227L173.146 8.93717Z" fill="white" stroke="#04009A" stroke-miterlimit="10" stroke-linecap="round"/>
<path d="M179.402 11.5026C179.402 11.5026 177.814 10.5761 176.411 10.5516" stroke="#04009A" stroke-miterlimit="10" stroke-linecap="round"/>
<path d="M177.271 14.6841C176.991 14.6841 176.765 14.2817 176.765 13.7854C176.765 13.289 176.991 12.8866 177.271 12.8866C177.551 12.8866 177.778 13.289 177.778 13.7854C177.778 14.2817 177.551 14.6841 177.271 14.6841Z" fill="#04009A"/>
<path d="M174.9 20.1011C176.807 20.1011 177.211 18.248 177.211 18.248" stroke="#04009A" stroke-miterlimit="10" stroke-linecap="round"/>
<path d="M191.485 14.8002L191.709 14.31C192.79 11.9573 192.892 9.27212 191.994 6.84406C191.095 4.41601 189.269 2.44362 186.916 1.36005L185.662 0.781588C184.544 0.266338 183.328 -0.000335333 182.097 -1.49705e-05C180.867 0.000305392 179.65 0.267611 178.533 0.783443C177.416 1.29927 176.424 2.05133 175.626 2.98766C174.828 3.924 174.243 5.02229 173.911 6.20666L173.146 8.93554H179.311C180.105 8.93554 180.867 9.25093 181.429 9.81234C181.991 10.3737 182.306 11.1352 182.306 11.9291V12.9259C182.306 14.1164 182.78 15.2581 183.622 16.0999C184.464 16.9417 185.607 17.4147 186.798 17.4147H187.403C188.263 17.4148 189.104 17.1686 189.828 16.7051C190.551 16.2417 191.126 15.5806 191.485 14.8002Z" fill="#04009A"/>
<path d="M179.255 25.6079C179.299 25.6076 179.344 25.6049 179.387 25.5997C180.388 25.4755 182.607 24.866 184.583 23.3676C186.98 21.5472 188.16 19.0602 187.999 16.1778C187.983 15.8961 187.856 15.6322 187.645 15.4442C187.435 15.2562 187.158 15.1594 186.876 15.1753C186.594 15.1911 186.33 15.3181 186.142 15.5285C185.954 15.7389 185.857 16.0153 185.873 16.297C186.164 21.4901 180.534 23.3235 179.123 23.4869C178.841 23.504 178.577 23.6323 178.39 23.8436C178.203 24.0549 178.107 24.3319 178.124 24.6135C178.141 24.8952 178.27 25.1586 178.481 25.3457C178.693 25.5328 178.97 25.6283 179.252 25.6111L179.255 25.6079Z" fill="#04009A"/>
<path d="M186.88 16.1778C185.422 16.1778 184.239 14.9962 184.239 13.5388C184.239 12.0813 185.422 10.8997 186.88 10.8997C188.339 10.8997 189.521 12.0813 189.521 13.5388C189.521 14.9962 188.339 16.1778 186.88 16.1778Z" stroke="white" stroke-miterlimit="10"/>
<path d="M180.615 9.37999C181.888 9.61203 177.975 7.96327 175.219 6.49263C175.386 6.0367 175.472 5.55489 175.471 5.06937C175.471 2.67548 173.448 0.73587 170.955 0.73587C168.461 0.73587 166.436 2.67548 166.436 5.06937C166.436 7.46325 168.459 9.40124 170.955 9.40124L180.615 9.37999Z" fill="#77ACF1"/>
<path d="M163.599 6.35375C162.722 6.35375 162.01 5.64265 162.01 4.76547C162.01 3.88829 162.722 3.1772 163.599 3.1772C164.477 3.1772 165.189 3.88829 165.189 4.76547C165.189 5.64265 164.477 6.35375 163.599 6.35375Z" fill="#77ACF1"/>
<path d="M142.773 97.204C142.773 97.204 183.901 119.854 206.006 105C206.006 105 227.087 119.303 244.075 122.174V82.4436C244.075 74.0821 240.335 61.611 236.226 50.4324C233.49 42.9949 228.535 36.5758 222.032 32.0419C215.528 27.5081 207.789 25.0781 199.859 25.08H192.118C187.23 25.08 182.542 27.0203 179.086 30.4739C175.63 33.9276 173.689 38.6117 173.689 43.4959V64.6095C173.689 65.2542 173.546 65.891 173.272 66.4744C172.997 67.0578 172.597 67.5735 172.1 67.9846C171.603 68.3957 171.021 68.6921 170.397 68.8527C169.772 69.0133 169.119 69.0341 168.485 68.9136L143.9 64.2402C145.916 66.2011 147.409 73.239 147.409 80.821C147.412 89.7642 145.336 97.204 142.773 97.204Z" fill="#77ACF1"/>
<path d="M138.952 80.821C138.952 89.7642 141.029 97.204 143.591 97.204C146.153 97.204 148.23 89.7642 148.23 80.821C148.23 71.8778 146.153 64.5164 143.591 64.5164C141.029 64.5164 138.952 71.8778 138.952 80.821Z" fill="white" stroke="#77ACF1" stroke-miterlimit="10"/>
<path d="M115.154 72.1392V88.1628H117.422C118.185 88.1628 118.916 87.8601 119.455 87.3214C119.994 86.7827 120.297 86.052 120.297 85.2901C120.297 83.9619 120.825 82.6881 121.764 81.7486C122.704 80.8091 123.978 80.2809 125.307 80.2801C126.637 80.2814 127.911 80.8097 128.85 81.749C129.79 82.6883 130.318 83.9619 130.319 85.2901C130.319 86.8548 130.627 88.4042 131.226 89.8499C131.825 91.2955 132.703 92.6091 133.81 93.7155C134.918 94.8219 136.232 95.6995 137.679 96.298C139.125 96.8966 140.676 97.2045 142.242 97.2041H142.763H142.886C145.391 96.9704 147.402 89.6285 147.402 80.8258C147.402 76.7946 146.979 73.0853 146.282 70.2273L140.15 67.3775L136.724 65.7859C134.961 64.9667 132.979 64.7424 131.076 65.147L118.69 67.7778C117.69 67.9912 116.794 68.5405 116.151 69.3342C115.507 70.1278 115.156 71.1178 115.154 72.1392Z" fill="white" stroke="#04009A" stroke-miterlimit="10" stroke-linecap="round"/>
<path d="M126.779 72.4072L118.698 74.123C117.697 74.3363 116.8 74.8864 116.156 75.6814C115.512 76.4764 115.161 77.4681 115.161 78.4908V87.9992" stroke="#04009A" stroke-miterlimit="10" stroke-linecap="round"/>
<path d="M138.134 80.821C138.134 89.7658 140.211 97.204 142.773 97.204H142.896C145.401 96.9703 147.412 89.6285 147.412 80.8259C147.412 76.7947 146.989 73.0854 146.292 70.2274L140.16 67.3776C138.935 70.3205 138.134 75.2652 138.134 80.821Z" fill="#04009A"/>
<path d="M203.308 106.997C211.085 101.931 218.528 93.6271 216.322 68.559" stroke="white" stroke-miterlimit="10" stroke-linecap="round"/>
<path d="M203.837 106.912C217.331 121.913 244.075 122.174 244.075 122.174V93.6205C243.042 112.662 214.347 102.681 210.496 101.265C208.542 103.618 206.146 105.392 203.837 106.912Z" fill="#04009A"/>
<path d="M200.201 24.5718V25.08C209.203 25.5511 217.806 28.9487 224.698 34.7556C231.59 40.5625 236.395 48.4608 238.381 57.2482L244.075 82.4438V24.5718H200.201Z" fill="#04009A"/>
<path d="M244.075 25.08V122.176H290.679C297.547 122.176 303.295 117.004 304.691 110.102C304.909 109.03 305.019 107.94 305.018 106.847V40.4075C305.018 40.3732 305.018 40.3372 305.018 40.3013C305.011 38.6282 304.744 36.9663 304.228 35.3746C302.281 29.3809 296.953 25.08 290.684 25.08H244.075Z" fill="white" stroke="#04009A" stroke-miterlimit="10" stroke-linecap="round"/>
<path d="M244.075 105.966V110.893H304.69C304.907 109.893 305.016 108.873 305.017 107.85V105.966H244.075Z" fill="#04009A"/>
<path d="M244.075 35.3746V40.3012H305.004C304.996 38.6282 304.729 36.9663 304.214 35.3746H244.075Z" fill="#04009A"/>
<path d="M244.582 41.7997H304.52V42.6167H244.582V41.7997Z" fill="#04009A"/>
<path d="M271.249 87.3883V61.026C271.249 60.7764 271.15 60.537 270.973 60.3605C270.797 60.1839 270.557 60.0848 270.307 60.0848V60.0848C270.058 60.0848 269.818 60.1839 269.641 60.3605C269.465 60.537 269.366 60.7764 269.366 61.026V72.0494" stroke="#04009A" stroke-miterlimit="10"/>
<path d="M271.249 87.3883V72.0444H267.008V80.1576C267.007 81.6308 267.4 83.0775 268.146 84.3485C268.891 85.6195 269.963 86.6688 271.249 87.3883V87.3883Z" stroke="#04009A" stroke-miterlimit="10"/>
<path d="M276.224 60.0848L275.785 65.2876C275.751 65.7017 275.802 66.1185 275.937 66.5117C276.071 66.9049 276.286 67.2658 276.568 67.5718C276.849 67.8777 277.191 68.122 277.572 68.2891C277.952 68.4562 278.364 68.5426 278.779 68.5427V68.5427C279.195 68.5428 279.607 68.4566 279.988 68.2896C280.368 68.1225 280.71 67.8783 280.992 67.5723C281.273 67.2663 281.488 66.9052 281.623 66.512C281.757 66.1187 281.809 65.7018 281.774 65.2876L281.337 60.0848" stroke="#77ACF1" stroke-miterlimit="10" stroke-linecap="round"/>
<path d="M278.783 60.0848V72.9546" stroke="#77ACF1" stroke-miterlimit="10" stroke-linecap="round"/>
<path d="M278.433 73.1622H279.084C279.483 73.1622 279.806 73.4855 279.806 73.8844V86.6708C279.806 87.0697 279.483 87.393 279.084 87.393H278.433C278.034 87.393 277.71 87.0697 277.71 86.6708V73.8844C277.71 73.4855 278.034 73.1622 278.433 73.1622Z" stroke="#77ACF1" stroke-miterlimit="10" stroke-linecap="round"/>
</svg>
