<svg width="14" height="14" viewBox="0 0 14 14" fill="none" xmlns="http://www.w3.org/2000/svg">
<g clip-path="url(#clip0)">
<path d="M6.9919 0.00164795C6.74096 0.00164795 6.49018 0.0151385 6.24067 0.042032C6.01197 0.0653922 5.78608 0.103703 5.56322 0.15019C5.52009 0.159213 5.47693 0.168732 5.43381 0.178689C4.12076 0.477642 2.92179 1.14899 1.9807 2.11222C1.89318 2.20192 1.80751 2.29428 1.72373 2.38927C-0.818445 5.30778 -0.51336 9.73455 2.40518 12.2767C5.1993 14.7105 9.40516 14.5486 12.0039 11.9072C12.0916 11.8175 12.1772 11.7251 12.2608 11.6301C13.3827 10.3525 14.001 8.71 14 7.00969C14 3.13922 10.8624 0.00161875 6.9919 0.00164795ZM2.29209 2.46262C2.329 2.42431 2.36731 2.38763 2.40492 2.35049C2.44837 2.30774 2.49158 2.26476 2.53597 2.22341C2.57498 2.18697 2.61516 2.15193 2.65511 2.11642C2.70019 2.07648 2.74504 2.03653 2.7913 1.99799C2.83194 1.96365 2.87376 1.93071 2.91534 1.89754C2.96206 1.86016 3.00878 1.82278 3.0569 1.78681C3.09942 1.75481 3.14263 1.72374 3.18608 1.69337C3.23444 1.65879 3.28303 1.62329 3.33232 1.59105C3.37647 1.56115 3.42109 1.53218 3.46594 1.50345C3.51593 1.47145 3.56615 1.43991 3.61685 1.41001C3.66249 1.38276 3.70842 1.35596 3.75467 1.32965C3.80639 1.30021 3.8583 1.27148 3.91048 1.24345C3.95721 1.21854 4.00393 1.19416 4.05065 1.17033C4.10391 1.14347 4.15764 1.11754 4.2116 1.09208C4.25832 1.06988 4.30691 1.04769 4.35503 1.02667C4.40993 1.00331 4.46552 0.979946 4.52112 0.956586C4.56948 0.936729 4.6176 0.91734 4.66642 0.898652C4.72295 0.877161 4.78019 0.857071 4.83742 0.836981C4.88624 0.819928 4.93506 0.802875 4.98459 0.786757C5.04276 0.768068 5.10139 0.750782 5.16026 0.733729C5.20955 0.719479 5.25837 0.704762 5.30789 0.691447C5.32682 0.686541 5.34574 0.68257 5.36466 0.677664C4.6732 1.34907 4.16006 2.18233 3.87171 3.10199C3.31725 2.95576 2.78049 2.74919 2.27106 2.48598C2.27877 2.4778 2.28531 2.46963 2.29209 2.46262ZM1.95617 2.83872C2.51731 3.14275 3.11235 3.37957 3.72898 3.5442C3.42669 4.59529 3.26802 5.68245 3.25733 6.77609H0.45644C0.507336 5.33392 1.03472 3.9493 1.95617 2.83872ZM1.95617 11.1807C1.03478 10.0701 0.507395 8.68544 0.45644 7.2433H3.25733C3.26802 8.33694 3.42667 9.42409 3.72898 10.4752C3.11238 10.6399 2.51734 10.8767 1.95617 11.1807ZM5.30649 13.3289C5.2593 13.317 5.21048 13.3015 5.16189 13.2873C5.10279 13.27 5.04346 13.2527 4.98506 13.2338C4.93577 13.2179 4.88718 13.2009 4.83859 13.1838C4.78112 13.1639 4.72365 13.1436 4.66689 13.1219C4.6183 13.1034 4.57041 13.0841 4.52229 13.0644C4.46646 13.0411 4.41063 13.0177 4.35526 12.9944C4.30761 12.9733 4.26019 12.9517 4.213 12.9294C4.15857 12.9037 4.10437 12.8776 4.04948 12.8505C4.00276 12.8271 3.95604 12.8037 3.90932 12.7783C3.85652 12.75 3.8042 12.721 3.75187 12.6911C3.70515 12.6652 3.66076 12.6386 3.61568 12.6115C3.56429 12.5806 3.51383 12.5489 3.46337 12.5164C3.41899 12.4881 3.3746 12.4594 3.33092 12.43C3.28116 12.3963 3.23187 12.3613 3.18305 12.3263C3.1403 12.2956 3.09755 12.265 3.0555 12.2328C3.00714 12.1964 2.95972 12.1588 2.91254 12.1209C2.87119 12.088 2.83007 12.0553 2.78966 12.0214C2.74294 11.9826 2.69785 11.9422 2.65254 11.902C2.61282 11.8668 2.57288 11.8319 2.5341 11.796C2.48948 11.7544 2.44626 11.7112 2.40282 11.6684C2.36521 11.6313 2.32689 11.5946 2.28998 11.5565C2.28321 11.5493 2.27667 11.5418 2.2699 11.5348C2.77929 11.2715 3.31605 11.0648 3.87054 10.9186C4.15895 11.8382 4.67206 12.6714 5.36349 13.3429C5.34457 13.338 5.32541 13.334 5.30649 13.3289ZM6.75833 13.5321C5.75875 13.3901 4.8825 12.3468 4.3312 10.8062C5.12825 10.6277 5.94163 10.532 6.75833 10.5205V13.5321ZM6.75833 10.0533C5.89196 10.0647 5.02924 10.1676 4.1845 10.3603C3.89118 9.3468 3.73645 8.29827 3.72454 7.2433H6.75833V10.0533ZM6.75833 6.77609H3.72454C3.73642 5.72111 3.89115 4.67259 4.1845 3.65913C5.02924 3.85177 5.89199 3.95467 6.75833 3.96609V6.77609ZM6.75833 3.49888C5.9416 3.48749 5.12825 3.39175 4.3312 3.21319C4.8825 1.67258 5.75875 0.629309 6.75833 0.487278V3.49888ZM12.0277 2.83872C12.9491 3.94933 13.4765 5.33395 13.5274 6.77609H10.7265C10.7158 5.68245 10.5572 4.59529 10.2549 3.5442C10.8715 3.37948 11.4665 3.1427 12.0277 2.83872ZM8.67551 0.690279C8.72456 0.702426 8.77339 0.717844 8.82197 0.732094C8.88108 0.74938 8.94041 0.766667 8.99881 0.785589C9.0481 0.801474 9.09669 0.818527 9.14528 0.83558C9.20275 0.855436 9.26021 0.875759 9.31698 0.897484C9.36557 0.915939 9.41346 0.935328 9.46158 0.95495C9.51741 0.978311 9.57324 1.00167 9.6286 1.02503C9.67626 1.04606 9.72368 1.06769 9.77087 1.08997C9.8253 1.11567 9.87949 1.14183 9.93439 1.16893C9.98111 1.19229 10.0278 1.21565 10.0746 1.24111C10.1273 1.26938 10.1797 1.29835 10.232 1.32825C10.2787 1.35418 10.3231 1.38081 10.3682 1.40791C10.4196 1.43874 10.47 1.47051 10.5205 1.50298C10.5649 1.53125 10.6093 1.55998 10.653 1.58941C10.7027 1.62305 10.7518 1.65786 10.8006 1.6929C10.8436 1.7235 10.8863 1.75434 10.9286 1.78634C10.9767 1.82255 11.0239 1.86016 11.0713 1.898C11.1124 1.93071 11.1538 1.96341 11.1942 1.99752C11.2409 2.0363 11.286 2.07671 11.3313 2.11689C11.371 2.15216 11.411 2.18697 11.4498 2.22294C11.4944 2.26453 11.5376 2.30774 11.5811 2.35049C11.6187 2.38763 11.657 2.42431 11.6939 2.46239C11.7007 2.46963 11.7072 2.4771 11.714 2.48411C11.2046 2.74744 10.6678 2.95409 10.1133 3.10036C9.82436 2.1806 9.31058 1.34743 8.61851 0.676263C8.63743 0.681168 8.65658 0.68514 8.67551 0.690279ZM7.22554 0.487278C8.22512 0.629309 9.10136 1.67258 9.65266 3.21319C8.85561 3.39166 8.04224 3.48741 7.22554 3.49888V0.487278ZM7.22554 3.96609C8.09191 3.9547 8.95463 3.8518 9.79937 3.65913C10.0927 4.67259 10.2474 5.72111 10.2593 6.77609H7.22554V3.96609ZM7.22554 7.2433H10.2593C10.2474 8.29827 10.0927 9.3468 9.79937 10.3603C8.95463 10.1676 8.09191 10.0647 7.22554 10.0533V7.2433ZM7.22554 13.5321V10.5205C8.04227 10.5319 8.85561 10.6276 9.65266 10.8062C9.10136 12.3468 8.22512 13.3901 7.22554 13.5321ZM11.6918 11.5568C11.6549 11.5948 11.6168 11.6315 11.5792 11.6687C11.5357 11.7114 11.4923 11.7546 11.4477 11.7962C11.4089 11.8324 11.3689 11.8663 11.3292 11.9025C11.2839 11.9427 11.2388 11.9829 11.1926 12.0216C11.1517 12.0557 11.1101 12.0887 11.0685 12.1218C11.0218 12.1592 10.9751 12.1966 10.927 12.2326C10.8844 12.2646 10.8412 12.2956 10.7978 12.326C10.7494 12.3606 10.7008 12.3961 10.6515 12.4283C10.6074 12.4582 10.5628 12.4872 10.5179 12.5157C10.4679 12.5479 10.4176 12.5791 10.3668 12.6091C10.3201 12.6365 10.2754 12.6631 10.2294 12.6895C10.1777 12.7189 10.1257 12.7477 10.0734 12.7757C10.0267 12.8006 9.97994 12.825 9.93322 12.8488C9.87996 12.8757 9.82623 12.9016 9.77227 12.9271C9.72555 12.9493 9.67696 12.9715 9.62884 12.9925C9.57394 13.0158 9.51834 13.0392 9.46275 13.0626C9.41439 13.0822 9.36627 13.1018 9.31768 13.1203C9.26068 13.142 9.20345 13.1623 9.14598 13.1822C9.09739 13.1992 9.0488 13.2163 8.99951 13.2322C8.94111 13.2511 8.88271 13.2684 8.82314 13.2854C8.77432 13.2999 8.72526 13.3144 8.67597 13.3277C8.65705 13.3326 8.63813 13.3366 8.61921 13.3415C9.31067 12.6701 9.82381 11.8368 10.1122 10.9172C10.6666 11.0634 11.2034 11.27 11.7128 11.5332C11.7051 11.5416 11.6986 11.5498 11.6918 11.5568ZM12.0277 11.1807C11.4666 10.8766 10.8715 10.6398 10.2549 10.4752C10.5572 9.42409 10.7158 8.33694 10.7265 7.2433H13.5274C13.4766 8.68544 12.9491 10.0701 12.0277 11.1807Z" fill="#868484"/>
</g>
<defs>
<clipPath id="clip0">
<rect width="14" height="14" fill="white"/>
</clipPath>
</defs>
</svg>
