<svg width="97" height="97" viewBox="0 0 97 97" fill="none" xmlns="http://www.w3.org/2000/svg">
<g clip-path="url(#clip0)">
<path d="M54.6307 97H42.3693C38.1206 97 34.6642 93.5434 34.6642 89.2949V84.4052C34.6642 82.5877 33.655 80.9319 32.0306 80.0834C31.1279 79.6122 30.2422 79.0999 29.398 78.5605C27.8468 77.5733 25.903 77.5242 24.3269 78.433L20.0898 80.8802C16.4093 83.0043 11.6872 81.7394 9.56264 78.0604L3.43193 67.4396C2.40282 65.658 2.12963 63.5816 2.66237 61.5933C3.19512 59.6054 4.46995 57.9439 6.25175 56.9147L10.4919 54.467C12.0653 53.558 12.9951 51.8526 12.9182 50.0166C12.8735 48.971 12.8737 48.0286 12.9182 46.9823C12.9951 45.1476 12.0653 43.4422 10.4915 42.533L6.25194 40.0854C4.46995 39.0561 3.19512 37.3946 2.66237 35.4067C2.12963 33.4184 2.40301 31.342 3.43212 29.5602L5.34541 26.2468C5.73796 25.5673 6.6066 25.3341 7.28655 25.727C7.96611 26.1193 8.19876 26.9884 7.80641 27.6679L5.89293 30.9815C5.24329 32.1061 5.07089 33.4163 5.40736 34.6712C5.74383 35.9262 6.54825 36.975 7.67303 37.6246L11.9128 40.0722C14.4058 41.5124 15.879 44.2062 15.7574 47.1028C15.7163 48.0707 15.7163 48.9287 15.7574 49.8961C15.879 52.7938 14.4058 55.4878 11.9132 56.9278L7.67284 59.3756C6.54825 60.025 5.74364 61.0738 5.40736 62.3288C5.07108 63.5837 5.24348 64.8941 5.89293 66.0185L12.0234 76.6395C13.3644 78.9614 16.3452 79.76 18.6687 78.4192L22.9064 75.9717C25.4039 74.5314 28.4763 74.6057 30.9256 76.1645C31.7023 76.6607 32.5158 77.1313 33.3454 77.5642C35.9116 78.9044 37.5056 81.5257 37.5056 84.4052V89.2949C37.5056 91.9765 39.6874 94.1582 42.3689 94.1582H54.6305C57.312 94.1582 59.4938 91.9765 59.4938 89.2949V84.4052C59.4938 81.5257 61.0878 78.9044 63.6538 77.5644C64.4838 77.1311 65.2973 76.6605 66.0721 76.1658C68.5233 74.6057 71.5958 74.5316 74.0923 75.9713L78.3313 78.4194C80.654 79.76 83.6348 78.9616 84.9763 76.6393L91.1067 66.0189C91.7563 64.8941 91.9287 63.5839 91.5922 62.3289C91.2558 61.074 90.4514 60.0252 89.3266 59.3756L85.0868 56.928C82.5938 55.4878 81.1206 52.794 81.2422 49.8974C81.2833 48.9295 81.2833 48.0715 81.2422 47.1041C81.1206 44.2064 82.5938 41.5124 85.0864 40.0724L89.3268 37.6244C90.4513 36.975 91.256 35.9262 91.5922 34.6712C91.9285 33.4163 91.7561 32.1059 91.1067 30.9815L84.9762 20.3605C83.635 18.0386 80.6542 17.2399 78.3309 18.5808L74.0932 21.0284C71.5955 22.4686 68.5233 22.3943 66.074 20.8355C65.2973 20.3393 64.4838 19.8687 63.6542 19.4358C61.088 18.0956 59.494 15.4743 59.494 12.5948V7.70506C59.494 5.02354 57.3122 2.8418 54.6307 2.8418H42.3693C39.6878 2.8418 37.506 5.02354 37.506 7.70506V12.5948C37.506 15.4743 35.912 18.0956 33.346 19.4356C32.516 19.8689 31.7025 20.3395 30.9276 20.8342C28.4765 22.3943 25.4039 22.4684 22.9075 21.0287L18.6685 18.5806C16.3456 17.24 13.365 18.0384 12.0234 20.3607L10.6313 22.7736C10.2392 23.4533 9.37015 23.6866 8.69058 23.2944C8.01083 22.9022 7.7778 22.0332 8.16997 21.3536L9.56245 18.94C11.6875 15.2604 16.4097 13.9953 20.0894 16.1194L24.3279 18.5674C25.9033 19.4758 27.8471 19.4265 29.3997 18.438C30.2418 17.8999 31.1277 17.3876 32.0306 16.9163C33.6548 16.0679 34.664 14.4121 34.664 12.5947V7.70506C34.6642 3.45657 38.1206 0 42.3693 0H54.6309C58.8796 0 62.3359 3.45657 62.3359 7.70506V12.5948C62.3359 14.4123 63.3452 16.0681 64.9695 16.9166C65.8723 17.3878 66.758 17.9001 67.6022 18.4395C69.1534 19.4265 71.0972 19.4758 72.6733 18.567L76.9104 16.1198C80.5909 13.9955 85.313 15.2608 87.4375 18.9396L93.568 29.5606C94.5972 31.3422 94.8703 33.4186 94.3376 35.4069C93.8049 37.3948 92.53 39.0563 90.7482 40.0854L86.5081 42.5332C84.9347 43.4422 84.0048 45.1476 84.0817 46.9836C84.1265 48.0292 84.1263 48.9715 84.0817 50.0179C84.0048 51.8526 84.9347 53.558 86.5085 54.4672L90.748 56.9146C92.53 57.9439 93.8049 59.6054 94.3376 61.5933C94.8703 63.5816 94.597 65.658 93.5679 67.4398L87.4375 78.0602C86.0119 80.5289 83.4156 81.9108 80.7506 81.911C79.4439 81.911 78.1212 81.5791 76.9106 80.8804L72.6721 78.4325C71.0966 77.524 69.1528 77.5733 67.6003 78.5619C66.7582 79.0999 65.8723 79.6122 64.9693 80.0835C63.3452 80.9319 62.3359 82.5877 62.3359 84.4052V89.2949C62.3357 93.5434 58.8794 97 54.6307 97V97Z" fill="#BFBFBF"/>
<path d="M48.5 77.1091C32.7248 77.1091 19.8909 64.275 19.8909 48.5C19.8909 32.725 32.7248 19.8909 48.5 19.8909C64.2752 19.8909 77.1091 32.7248 77.1091 48.5C77.1091 64.2752 64.2752 77.1091 48.5 77.1091ZM48.5 22.7327C34.292 22.7327 22.7327 34.292 22.7327 48.5C22.7327 62.708 34.292 74.2673 48.5 74.2673C62.708 74.2673 74.2673 62.7082 74.2673 48.5C74.2673 34.2918 62.708 22.7327 48.5 22.7327V22.7327Z" fill="#BFBFBF"/>
<path d="M42.0214 69.3404C40.4022 69.3404 38.8968 68.4902 38.06 67.0909L28.6629 51.3736C27.3576 49.1891 28.0722 46.3493 30.2555 45.0431L34.9963 42.2104C36.055 41.5778 37.297 41.3951 38.4914 41.6954C39.6872 41.9961 40.6941 42.745 41.3269 43.8038L44.7588 49.5445L53.3952 32.1195C54.5276 29.8387 57.3029 28.9045 59.5818 30.0359L64.5292 32.487C66.81 33.6179 67.7457 36.3928 66.6153 38.6731L57.4626 57.1389C57.1142 57.8419 56.2622 58.1295 55.5584 57.7809C54.8554 57.4325 54.5678 56.58 54.9164 55.8769L64.069 37.4109C64.5036 36.5345 64.1439 35.4679 63.2675 35.0333L58.3193 32.582C57.4425 32.1472 56.3759 32.5062 55.9409 33.3824L46.1489 53.1399C45.9179 53.6058 45.4511 53.9083 44.9316 53.9288C44.4152 53.9506 43.923 53.6844 43.6562 53.238L38.8877 45.2621C38.386 44.4222 37.2944 44.1483 36.454 44.6501L31.7137 47.4825C30.875 47.9841 30.6003 49.0761 31.1021 49.9158L40.4988 65.6324C40.8328 66.191 41.444 66.5208 42.0902 66.4973L48.751 66.2359C49.3984 66.2095 49.9809 65.8321 50.2695 65.2507L52.3911 60.9696C52.7396 60.2668 53.5921 59.979 54.2951 60.3274C54.9984 60.6758 55.2858 61.5283 54.9374 62.2314L52.8155 66.5132C52.0651 68.0254 50.5514 69.007 48.8645 69.0752L42.2014 69.3368C42.1414 69.3393 42.0811 69.3404 42.0214 69.3404V69.3404Z" fill="#BFBFBF"/>
</g>
<defs>
<clipPath id="clip0">
<rect width="97" height="97" fill="white"/>
</clipPath>
</defs>
</svg>
