<svg width="97" height="97" viewBox="0 0 97 97" fill="none" xmlns="http://www.w3.org/2000/svg">
<g clip-path="url(#clip0)">
<path d="M48.5172 0.0101324C29.1111 0.00730378 11.5723 11.5748 3.93414 29.4144L3.32964 29.6148L3.564 30.3179C-6.4928 55.1217 5.46178 83.3818 30.2656 93.4386C36.0587 95.7876 42.2515 96.9934 48.5028 96.9899C75.283 96.994 96.9959 75.2875 97 48.5073C97.004 21.7271 75.2975 0.0139711 48.5172 0.0101324ZM86.552 72.9478L84.0621 70.4595V64.6633C84.0649 64.4132 84.0095 64.1659 83.9004 63.9408L77.5967 51.3512V45.2674C77.5967 44.7271 77.327 44.2224 76.8775 43.9226L72.0285 40.6899C71.6484 40.4362 71.1787 40.3551 70.7354 40.4669L64.797 41.9507L54.8227 37.6706L53.4504 28.0567L57.2536 24.2551H65.4177L68.1655 28.3848C68.4136 28.7562 68.8045 29.0085 69.2452 29.0814L78.9431 30.6978C79.203 30.7414 79.4693 30.7202 79.719 30.6364L88.6508 27.6591C96.1423 42.0353 95.341 59.3262 86.552 72.9478ZM79.8855 15.9374L77.2573 17.6895L69.9305 16.2235L65.1769 14.6412C64.8859 14.5424 64.5728 14.5298 64.275 14.6056L58.2654 16.1072L55.6308 15.2295L57.5833 11.3244H63.0498C63.3005 11.3246 63.5478 11.2667 63.7723 11.1547L69.3648 8.35848C73.2161 10.3688 76.7591 12.921 79.8855 15.9374ZM30.7992 6.85206L34.6783 9.43818C34.8691 9.56507 35.0845 9.64992 35.3103 9.6871L43.1431 10.9931L42.3785 13.2802L38.2973 14.6428C37.9318 14.7644 37.6217 15.0125 37.4229 15.3426L32.7808 23.0784L25.3246 27.5524L14.3336 29.1218C13.537 29.2344 12.9446 29.9159 12.9436 30.7204V35.5694C12.9436 35.9981 13.1141 36.4091 13.4171 36.7121L16.1762 39.4712V42.2481L9.45229 37.7644L7.01325 30.4472C11.6537 19.8441 20.1591 11.4069 30.7992 6.85206ZM26.1975 59.8467L18.8917 58.3839L16.1762 52.9676V49.1692L22.1987 43.1467L24.4276 47.6062C24.7014 48.1541 25.2616 48.5002 25.8742 48.5H36.2737L40.6523 55.7978C40.9445 56.2841 41.4702 56.5815 42.0375 56.5817H46.5309L45.3995 62.2501L39.28 68.3696C38.9764 68.6724 38.8054 69.0834 38.8048 69.5123V73.5531L32.9861 77.9172C32.5791 78.2225 32.3395 78.7016 32.3395 79.2103V85.0485L30.3288 84.3826L27.4905 77.2836V61.4307C27.4907 60.6625 26.9501 60.0002 26.1975 59.8467ZM21.3388 84.6939C6.09901 73.2606 -0.345898 53.5058 5.21913 35.2849L6.56229 39.3128C6.67544 39.6537 6.8989 39.9472 7.19751 40.1468L15.2549 45.5179L13.4171 47.3573C13.1141 47.6603 12.9436 48.0713 12.9436 48.5V53.349C12.9434 53.5998 13.0013 53.8471 13.1133 54.0715L16.3459 60.5368C16.5698 60.9834 16.9874 61.3014 17.4774 61.3983L24.266 62.7544V77.594C24.2657 77.7992 24.3047 78.0029 24.3807 78.1936L27.6134 86.2753C27.7904 86.7167 28.1528 87.058 28.6042 87.2079L33.4532 88.8242C33.6152 88.8792 33.7849 88.9075 33.9558 88.9083C34.8485 88.9083 35.5722 88.1846 35.5722 87.2919V80.0185L41.391 75.6544C41.7979 75.3491 42.0375 74.87 42.0375 74.3613V70.1815L48.0292 64.1897C48.2545 63.9641 48.4081 63.6766 48.4705 63.3638L50.0868 55.2822C50.2618 54.4067 49.694 53.5553 48.8186 53.3803C48.7146 53.3595 48.6089 53.349 48.5028 53.349H42.9523L38.5737 46.0513C38.2815 45.565 37.7558 45.2676 37.1885 45.2674H26.8731L24.0962 39.6959C23.8637 39.2308 23.4216 38.9059 22.9082 38.8231C22.3951 38.7344 21.8712 38.9037 21.5069 39.2756L19.4089 41.3655V38.802C19.4089 38.3733 19.2384 37.9624 18.9353 37.6593L16.1762 34.9002V32.1218L26.1037 30.7042C26.3169 30.6733 26.5219 30.6002 26.7066 30.4893L34.7883 25.6403C35.0149 25.5041 35.2049 25.3142 35.341 25.0875L39.8829 17.5182L44.1646 16.0894C44.6481 15.9308 45.0275 15.5515 45.1861 15.0679L46.8024 10.2189C47.0825 9.37131 46.6224 8.45707 45.7749 8.17704C45.6967 8.15118 45.6165 8.13138 45.5352 8.11764L36.1799 6.55788L34.5361 5.46201C44.7075 2.15137 55.724 2.56111 65.6214 6.61769L62.6683 8.09178H56.5845C55.9688 8.08835 55.4049 8.43505 55.1298 8.98561L51.8971 15.4509C51.4989 16.2498 51.8236 17.2204 52.6224 17.6186C52.6905 17.6526 52.7608 17.6817 52.833 17.7057L57.6819 19.322C57.9729 19.4208 58.286 19.4334 58.5839 19.3576L64.5934 17.856L68.9963 19.322C69.0593 19.3447 69.1241 19.362 69.1902 19.3738L77.2719 20.9901C77.6921 21.0758 78.1293 20.9897 78.4857 20.7509L82.1645 18.2973C83.975 20.3139 85.602 22.4878 87.0264 24.7933L79.0741 27.4441L70.4639 26.0088L67.6191 21.7417C67.3209 21.2946 66.8199 21.025 66.2824 21.0224H56.5845C56.1557 21.0224 55.7448 21.1929 55.4417 21.496L50.5927 26.345C50.2327 26.7048 50.0632 27.2134 50.1353 27.7173L51.7516 39.0316C51.8331 39.591 52.2008 40.0672 52.7214 40.2875L64.0357 45.1364C64.3598 45.2769 64.7215 45.3058 65.0637 45.2189L70.8356 43.7755L74.3641 46.1321V51.7327C74.3613 51.9828 74.4166 52.2301 74.5257 52.4552L80.8294 65.0448V71.1286C80.8294 71.5574 80.9999 71.9683 81.303 72.2714L84.6844 75.6544C69.6882 95.6429 41.3273 99.6902 21.3388 84.6939Z" fill="#BFBFBF"/>
</g>
<defs>
<clipPath id="clip0">
<rect width="97" height="97" fill="white"/>
</clipPath>
</defs>
</svg>
