<svg width="66" height="18" viewBox="0 0 66 18" fill="none" xmlns="http://www.w3.org/2000/svg">
<path d="M26.424 0.151999L19.056 17H14.088L13.344 5.936L8.616 17H3.648L2.352 0.151999H6.744L7.008 12.416L12.168 0.151999H16.704L17.424 12.344L22.008 0.151999H26.424ZM41.0822 3.608L38.7302 17H34.6262L34.9382 15.176C34.4102 15.768 33.7622 16.248 32.9942 16.616C32.2422 16.968 31.4342 17.144 30.5702 17.144C29.2262 17.144 28.1702 16.768 27.4022 16.016C26.6342 15.248 26.2502 14.184 26.2502 12.824C26.2502 12.312 26.2902 11.848 26.3702 11.432L27.7622 3.608H31.8422L30.5702 10.88C30.5222 11.136 30.4982 11.384 30.4982 11.624C30.4982 12.296 30.6822 12.816 31.0502 13.184C31.4342 13.536 31.9622 13.712 32.6342 13.712C33.4022 13.712 34.0502 13.488 34.5782 13.04C35.1222 12.576 35.4822 11.92 35.6582 11.072L36.9782 3.608H41.0822ZM46.1181 13.616H51.9501L51.3261 17H40.9341L41.5341 13.736L48.2781 6.992H42.7581L43.3581 3.608H53.5581L52.9821 6.872L46.1181 13.616ZM58.0243 13.616H63.8563L63.2323 17H52.8403L53.4403 13.736L60.1843 6.992H54.6643L55.2643 3.608H65.4643L64.8883 6.872L58.0243 13.616Z" fill="#04009A"/>
<path d="M0 8.984H65.2243V10.184H0V8.984Z" fill="#04009A"/>
</svg>
